<svg version="1.2" xmlns="http://www.w3.org/2000/svg" viewBox="0 0 58 40" width="58" height="40"><style>.a{fill:#d1d4d2}.b{fill:#a5a5a4}.c{fill:#fff}.d{fill:none;stroke:#f00;stroke-width:.5}.e{fill:#3a3a3a}</style><path class="a" d="m54.8 41h-51.6c-1.8 0-3.2-1.4-3.2-3.2v-35.6c0-1.8 1.4-3.2 3.2-3.2h51.6c1.8 0 3.2 1.4 3.2 3.2v35.6c0 1.8-1.4 3.2-3.2 3.2z"/><path class="b" d="m0 4h58v8h-58z"/><path class="c" d="m15 25.2h-8c-0.6 0-1-0.4-1-1 0-0.6 0.4-1 1-1h8c0.6 0 1 0.4 1 1 0 0.6-0.4 1-1 1z"/><path class="c" d="m27 25.2h-8c-0.6 0-1-0.4-1-1 0-0.6 0.4-1 1-1h8c0.6 0 1 0.4 1 1 0 0.6-0.4 1-1 1z"/><path class="c" d="m8 30.2h-1c-0.6 0-1-0.4-1-1 0-0.6 0.4-1 1-1h1c0.6 0 1 0.4 1 1 0 0.6-0.4 1-1 1z"/><path class="c" d="m14 30.2h-2c-0.6 0-1-0.4-1-1 0-0.6 0.4-1 1-1h2c0.6 0 1 0.4 1 1 0 0.6-0.4 1-1 1z"/><path class="c" d="m19 30.2h-1c-0.6 0-1-0.4-1-1 0-0.6 0.4-1 1-1h1c0.6 0 1 0.4 1 1 0 0.6-0.4 1-1 1z"/><path class="c" d="m25 30.2h-2c-0.6 0-1-0.4-1-1 0-0.6 0.4-1 1-1h2c0.6 0 1 0.4 1 1 0 0.6-0.4 1-1 1z"/><path class="c" d="m29 30.2c-0.3 0-0.5-0.1-0.7-0.3-0.2-0.2-0.3-0.4-0.3-0.7 0-0.3 0.1-0.5 0.3-0.7 0.4-0.4 1-0.4 1.4 0 0.2 0.2 0.3 0.4 0.3 0.7 0 0.3-0.1 0.5-0.3 0.7-0.2 0.2-0.4 0.3-0.7 0.3z"/><path class="c" d="m47 30.2h-1c-0.6 0-1-0.4-1-1 0-0.6 0.4-1 1-1h1c0.6 0 1 0.4 1 1 0 0.6-0.4 1-1 1z"/><path class="c" d="m51 30.2c-0.3 0-0.5-0.1-0.7-0.3-0.2-0.2-0.3-0.4-0.3-0.7 0-0.3 0.1-0.5 0.3-0.7 0.4-0.4 1-0.4 1.4 0 0.2 0.2 0.3 0.4 0.3 0.7 0 0.3-0.1 0.5-0.3 0.7-0.2 0.2-0.4 0.3-0.7 0.3z"/><path class="c" d="m38 30.2h-5c-0.6 0-1-0.4-1-1 0-0.6 0.4-1 1-1h5c0.6 0 1 0.4 1 1 0 0.6-0.4 1-1 1z"/><path class="c" d="m42 30.2c-0.3 0-0.5-0.1-0.7-0.3-0.2-0.2-0.3-0.4-0.3-0.7 0-0.3 0.1-0.5 0.3-0.7 0.4-0.4 1-0.4 1.4 0 0.2 0.2 0.3 0.4 0.3 0.7 0 0.3-0.1 0.5-0.3 0.7-0.2 0.2-0.4 0.3-0.7 0.3z"/><path class="c" d="m39.9 14.9h-32.8c-0.6 0-1.1 0.5-1.1 1.1v2.9c0 0.6 0.5 1.1 1.1 1.1h32.8c0.6 0 1.1-0.5 1.1-1.1v-2.9c0-0.6-0.5-1.1-1.1-1.1z"/><path class="d" d="m40.9 21.2h-10.8c-0.9 0-1.7-0.7-1.7-1.7v-4.5c0-0.9 0.7-1.7 1.7-1.7h10.7c0.9 0 1.7 0.7 1.7 1.7v4.5c0 1-0.7 1.7-1.6 1.7z"/><path class="e" d="m32.1 15.9v2.9h-0.6v-2.5h-0.5v-0.4z"/><path class="e" d="m34.8 18.3v0.5h-2.1v-0.3l1.2-1.1q0.3-0.3 0.3-0.6c0-0.2-0.2-0.4-0.6-0.4-0.2 0-0.5 0.1-0.7 0.3l-0.4-0.4c0.2-0.3 0.7-0.5 1.1-0.5 0.7 0 1.1 0.3 1.1 0.8 0 0.2-0.1 0.6-0.5 0.9l-0.7 0.7h1.3z"/><path class="e" d="m37.2 17.9c0 0.5-0.3 0.9-1.2 0.9-0.4 0-0.8-0.1-1.1-0.3l0.2-0.4c0.2 0.2 0.5 0.2 0.8 0.2 0.4 0 0.6-0.2 0.6-0.4 0-0.2-0.2-0.4-0.7-0.4h-0.2v-0.3l0.7-0.7h-1.2v-0.5h2v0.3l-0.7 0.8c0.5 0.1 0.8 0.4 0.8 0.8z"/><path class="e" d="m40.1 18.2h-0.5v0.7h-0.5v-0.7h-1.6v-0.4l1.4-1.9h0.6l-1.3 1.8h0.9v-0.6h0.5v0.6h0.5z"/></svg>